<svg width="553" height="125" viewBox="0 0 553 125" fill="none" xmlns="http://www.w3.org/2000/svg">
<path d="M254.852 34.4531C254.577 31.0147 253.288 28.3327 250.984 26.4072C248.715 24.4816 245.259 23.5189 240.617 23.5189C237.66 23.5189 235.236 23.8799 233.345 24.602C231.488 25.2897 230.113 26.2352 229.219 27.4387C228.325 28.6421 227.861 30.0175 227.826 31.5648C227.757 32.837 227.981 33.9889 228.497 35.0204C229.047 36.0176 229.906 36.9288 231.076 37.754C232.245 38.5448 233.74 39.2669 235.563 39.9202C237.385 40.5735 239.551 41.158 242.061 41.6738L250.726 43.5305C256.572 44.7684 261.574 46.4016 265.735 48.4303C269.895 50.459 273.299 52.8487 275.947 55.5994C278.595 58.3158 280.537 61.376 281.775 64.7801C283.047 68.1841 283.701 71.8976 283.735 75.9206C283.701 82.8662 281.964 88.7459 278.526 93.5597C275.087 98.3735 270.171 102.035 263.775 104.546C257.414 107.056 249.763 108.311 240.824 108.311C231.643 108.311 223.631 106.952 216.789 104.236C209.981 101.52 204.686 97.342 200.903 91.703C197.155 86.0296 195.264 78.7745 195.23 69.9377H222.462C222.634 73.1698 223.442 75.8862 224.886 78.0868C226.331 80.2874 228.359 81.955 230.972 83.0897C233.62 84.2244 236.766 84.7917 240.411 84.7917C243.471 84.7917 246.033 84.4135 248.096 83.657C250.159 82.9006 251.723 81.8519 252.789 80.5109C253.855 79.1699 254.405 77.6398 254.44 75.9206C254.405 74.3045 253.872 72.8948 252.841 71.6913C251.844 70.4535 250.193 69.3532 247.889 68.3904C245.586 67.3933 242.474 66.4649 238.554 65.6053L228.033 63.3359C218.68 61.3072 211.305 57.9204 205.906 53.1754C200.542 48.3959 197.877 41.8801 197.912 33.6279C197.877 26.9229 199.665 21.0604 203.276 16.0403C206.921 10.9858 211.958 7.04879 218.388 4.22927C224.852 1.40976 232.262 0 240.617 0C249.144 0 256.52 1.42695 262.743 4.28085C268.967 7.13475 273.764 11.1577 277.133 16.3498C280.537 21.5074 282.257 27.5418 282.291 34.4531H254.852Z" fill="#E62B1E"/>
<path d="M102.598 107.073V1.44409H148.192C156.032 1.44409 162.891 2.99139 168.771 6.08598C174.651 9.18056 179.224 13.5302 182.49 19.1348C185.757 24.7395 187.39 31.2897 187.39 38.7855C187.39 46.35 185.705 52.9002 182.336 58.4361C179 63.972 174.307 68.2356 168.255 71.2271C162.238 74.2185 155.206 75.7142 147.161 75.7142H119.928V53.4332H141.384C144.754 53.4332 147.625 52.8486 149.997 51.6796C152.404 50.4761 154.244 48.7741 155.516 46.5735C156.823 44.3729 157.476 41.7769 157.476 38.7855C157.476 35.7596 156.823 33.1808 155.516 31.049C154.244 28.8828 152.404 27.2323 149.997 26.0976C147.625 24.9286 144.754 24.344 141.384 24.344H131.275V107.073H102.598Z" fill="#E62B1E"/>
<path d="M0 24.5504V1.44409H91.8061V24.5504H60.035V107.073H31.7711V24.5504H0Z" fill="#E62B1E"/>
<path d="M296.545 26H289.727L297.409 2.72727H306.045L313.727 26H306.909L301.818 9.13636H301.636L296.545 26ZM295.273 16.8182H308.091V21.5455H295.273V16.8182ZM354.389 10C354.329 9.24242 354.045 8.65151 353.537 8.22727C353.037 7.80303 352.276 7.59091 351.253 7.59091C350.601 7.59091 350.067 7.67045 349.651 7.82954C349.241 7.98106 348.938 8.18939 348.741 8.45454C348.545 8.7197 348.442 9.02273 348.435 9.36364C348.42 9.64394 348.469 9.89773 348.582 10.125C348.704 10.3447 348.893 10.5455 349.151 10.7273C349.408 10.9015 349.738 11.0606 350.139 11.2045C350.541 11.3485 351.018 11.4773 351.571 11.5909L353.48 12C354.768 12.2727 355.87 12.6326 356.787 13.0795C357.704 13.5265 358.454 14.053 359.037 14.6591C359.62 15.2576 360.048 15.9318 360.321 16.6818C360.601 17.4318 360.745 18.25 360.753 19.1364C360.745 20.6667 360.363 21.9621 359.605 23.0227C358.848 24.0833 357.764 24.8902 356.355 25.4432C354.954 25.9962 353.268 26.2727 351.298 26.2727C349.276 26.2727 347.51 25.9735 346.003 25.375C344.503 24.7765 343.336 23.8561 342.503 22.6136C341.677 21.3636 341.26 19.7652 341.253 17.8182H347.253C347.291 18.5303 347.469 19.1288 347.787 19.6136C348.105 20.0985 348.552 20.4659 349.128 20.7159C349.711 20.9659 350.404 21.0909 351.207 21.0909C351.882 21.0909 352.446 21.0076 352.901 20.8409C353.355 20.6742 353.7 20.4432 353.935 20.1477C354.17 19.8523 354.291 19.5152 354.298 19.1364C354.291 18.7803 354.173 18.4697 353.946 18.2045C353.726 17.9318 353.363 17.6894 352.855 17.4773C352.348 17.2576 351.662 17.053 350.798 16.8636L348.48 16.3636C346.42 15.9167 344.795 15.1705 343.605 14.125C342.423 13.072 341.836 11.6364 341.844 9.81818C341.836 8.34091 342.23 7.04924 343.026 5.94318C343.829 4.82954 344.938 3.96212 346.355 3.34091C347.779 2.7197 349.412 2.40909 351.253 2.40909C353.132 2.40909 354.757 2.72348 356.128 3.35227C357.499 3.98106 358.556 4.86742 359.298 6.01136C360.048 7.14773 360.427 8.47727 360.435 10H354.389ZM371.611 26.3182C369.747 26.3182 368.141 25.9621 366.793 25.25C365.452 24.5303 364.418 23.5 363.69 22.1591C362.971 20.8106 362.611 19.197 362.611 17.3182C362.611 15.5152 362.974 13.9394 363.702 12.5909C364.429 11.2424 365.455 10.1932 366.781 9.44318C368.107 8.69318 369.671 8.31818 371.474 8.31818C372.793 8.31818 373.986 8.52273 375.054 8.93182C376.122 9.34091 377.035 9.93561 377.793 10.7159C378.55 11.4886 379.134 12.428 379.543 13.5341C379.952 14.6402 380.156 15.8864 380.156 17.2727V18.7273H364.565V15.2727H374.384C374.376 14.7727 374.247 14.3333 373.997 13.9545C373.755 13.5682 373.425 13.2689 373.009 13.0568C372.599 12.8371 372.134 12.7273 371.611 12.7273C371.103 12.7273 370.637 12.8371 370.213 13.0568C369.789 13.2689 369.448 13.5644 369.19 13.9432C368.94 14.322 368.808 14.7652 368.793 15.2727V19C368.793 19.5606 368.91 20.0606 369.145 20.5C369.38 20.9394 369.717 21.2841 370.156 21.5341C370.596 21.7841 371.126 21.9091 371.747 21.9091C372.179 21.9091 372.573 21.8485 372.929 21.7273C373.293 21.6061 373.603 21.4318 373.861 21.2045C374.118 20.9697 374.308 20.6894 374.429 20.3636H380.156C379.959 21.5758 379.493 22.6288 378.759 23.5227C378.024 24.4091 377.05 25.0985 375.838 25.5909C374.634 26.0758 373.224 26.3182 371.611 26.3182ZM387.58 26.2727C386.466 26.2727 385.481 26.0909 384.625 25.7273C383.777 25.3561 383.11 24.7955 382.625 24.0455C382.14 23.2955 381.898 22.3409 381.898 21.1818C381.898 20.2273 382.061 19.4129 382.386 18.7386C382.712 18.0568 383.167 17.5 383.75 17.0682C384.333 16.6364 385.011 16.3068 385.784 16.0795C386.564 15.8523 387.405 15.7045 388.307 15.6364C389.284 15.5606 390.068 15.4697 390.659 15.3636C391.258 15.25 391.689 15.0947 391.955 14.8977C392.22 14.6932 392.352 14.4242 392.352 14.0909V14.0455C392.352 13.5909 392.178 13.2424 391.83 13C391.481 12.7576 391.034 12.6364 390.489 12.6364C389.89 12.6364 389.402 12.7689 389.023 13.0341C388.652 13.2917 388.428 13.6894 388.352 14.2273H382.58C382.655 13.1667 382.992 12.1894 383.591 11.2955C384.197 10.3939 385.08 9.67424 386.239 9.13636C387.398 8.59091 388.845 8.31818 390.58 8.31818C391.83 8.31818 392.951 8.46591 393.943 8.76136C394.936 9.04924 395.78 9.45455 396.477 9.97727C397.174 10.4924 397.705 11.0985 398.068 11.7955C398.439 12.4848 398.625 13.2348 398.625 14.0455V26H392.761V23.5455H392.625C392.277 24.197 391.852 24.7235 391.352 25.125C390.86 25.5265 390.295 25.8182 389.659 26C389.03 26.1818 388.337 26.2727 387.58 26.2727ZM389.625 22.3182C390.102 22.3182 390.549 22.2197 390.966 22.0227C391.39 21.8258 391.735 21.5417 392 21.1705C392.265 20.7992 392.398 20.3485 392.398 19.8182V18.3636C392.231 18.4318 392.053 18.4962 391.864 18.5568C391.682 18.6174 391.485 18.6742 391.273 18.7273C391.068 18.7803 390.848 18.8295 390.614 18.875C390.386 18.9205 390.148 18.9621 389.898 19C389.413 19.0758 389.015 19.2008 388.705 19.375C388.402 19.5417 388.174 19.75 388.023 20C387.879 20.2424 387.807 20.5152 387.807 20.8182C387.807 21.303 387.977 21.6742 388.318 21.9318C388.659 22.1894 389.095 22.3182 389.625 22.3182ZM401.622 26V8.54545H407.713V11.8636H407.895C408.213 10.6364 408.717 9.73864 409.406 9.17045C410.103 8.60227 410.918 8.31818 411.849 8.31818C412.122 8.31818 412.391 8.34091 412.656 8.38636C412.929 8.42424 413.19 8.48106 413.44 8.55682V13.9091C413.13 13.803 412.747 13.7235 412.293 13.6705C411.838 13.6174 411.448 13.5909 411.122 13.5909C410.509 13.5909 409.955 13.7311 409.463 14.0114C408.978 14.2841 408.596 14.6705 408.315 15.1705C408.035 15.6629 407.895 16.2424 407.895 16.9091V26H401.622ZM422.906 26.3182C421.012 26.3182 419.391 25.9432 418.043 25.1932C416.694 24.4356 415.66 23.3826 414.94 22.0341C414.221 20.678 413.861 19.1061 413.861 17.3182C413.861 15.5303 414.221 13.9621 414.94 12.6136C415.66 11.2576 416.694 10.2045 418.043 9.45454C419.391 8.69697 421.012 8.31818 422.906 8.31818C424.618 8.31818 426.099 8.62879 427.349 9.25C428.607 9.86364 429.58 10.7348 430.27 11.8636C430.959 12.9848 431.308 14.303 431.315 15.8182H425.497C425.414 14.9015 425.149 14.2045 424.702 13.7273C424.262 13.2424 423.694 13 422.997 13C422.452 13 421.974 13.1591 421.565 13.4773C421.156 13.7879 420.838 14.2614 420.611 14.8977C420.384 15.5265 420.27 16.3182 420.27 17.2727C420.27 18.2273 420.384 19.0227 420.611 19.6591C420.838 20.2879 421.156 20.7614 421.565 21.0795C421.974 21.3902 422.452 21.5455 422.997 21.5455C423.459 21.5455 423.868 21.4394 424.224 21.2273C424.58 21.0076 424.868 20.6894 425.088 20.2727C425.315 19.8485 425.452 19.3333 425.497 18.7273H431.315C431.293 20.2652 430.94 21.6061 430.259 22.75C429.577 23.8864 428.611 24.7652 427.361 25.3864C426.118 26.0076 424.634 26.3182 422.906 26.3182ZM440.176 16.1818V26H433.903V2.72727H439.949V11.8636H440.131C440.525 10.75 441.18 9.88258 442.097 9.26136C443.013 8.63258 444.116 8.31818 445.403 8.31818C446.638 8.31818 447.71 8.59848 448.619 9.15909C449.536 9.7197 450.244 10.4924 450.744 11.4773C451.252 12.4621 451.502 13.5909 451.494 14.8636V26H445.222V16.1818C445.229 15.3182 445.013 14.6402 444.574 14.1477C444.142 13.6553 443.525 13.4091 442.722 13.4091C442.214 13.4091 441.767 13.5227 441.381 13.75C441.002 13.9697 440.706 14.2879 440.494 14.7045C440.29 15.1136 440.184 15.6061 440.176 16.1818ZM290.5 65V41.7273H307.273V46.8182H296.818V50.8182H306.409V55.9091H296.818V59.9091H307.227V65H290.5ZM316.77 55.1818V65H310.497V47.5455H316.452V50.8636H316.634C317.012 49.7576 317.679 48.8902 318.634 48.2614C319.596 47.6326 320.717 47.3182 321.997 47.3182C323.232 47.3182 324.304 47.6023 325.213 48.1705C326.13 48.7311 326.838 49.5038 327.338 50.4886C327.846 51.4735 328.096 52.5985 328.088 53.8636V65H321.815V55.1818C321.823 54.3182 321.603 53.6402 321.156 53.1477C320.717 52.6553 320.103 52.4091 319.315 52.4091C318.8 52.4091 318.349 52.5227 317.963 52.75C317.584 52.9697 317.293 53.2879 317.088 53.7045C316.884 54.1136 316.777 54.6061 316.77 55.1818ZM339.594 71.9091C337.844 71.9091 336.344 71.6591 335.094 71.1591C333.851 70.6667 332.885 69.9848 332.196 69.1136C331.514 68.25 331.132 67.2576 331.048 66.1364H337.094C337.154 66.5076 337.306 66.8068 337.548 67.0341C337.791 67.2614 338.101 67.4242 338.48 67.5227C338.866 67.6288 339.298 67.6818 339.776 67.6818C340.586 67.6818 341.257 67.4848 341.787 67.0909C342.325 66.697 342.594 65.9848 342.594 64.9545V62H342.412C342.185 62.5909 341.836 63.0947 341.366 63.5114C340.897 63.9205 340.332 64.2348 339.673 64.4545C339.014 64.6667 338.291 64.7727 337.503 64.7727C336.26 64.7727 335.116 64.4848 334.071 63.9091C333.033 63.3333 332.2 62.4205 331.571 61.1705C330.95 59.9205 330.639 58.2879 330.639 56.2727C330.639 54.1667 330.965 52.4545 331.616 51.1364C332.276 49.8182 333.124 48.8523 334.162 48.2386C335.207 47.625 336.306 47.3182 337.457 47.3182C338.321 47.3182 339.079 47.4697 339.73 47.7727C340.382 48.0682 340.927 48.4659 341.366 48.9659C341.806 49.4583 342.139 50 342.366 50.5909H342.503V47.5455H348.776V64.9545C348.776 66.4318 348.393 67.6856 347.628 68.7159C346.87 69.7538 345.802 70.5455 344.423 71.0909C343.045 71.6364 341.435 71.9091 339.594 71.9091ZM339.821 60.3182C340.397 60.3182 340.889 60.1591 341.298 59.8409C341.715 59.5152 342.033 59.053 342.253 58.4545C342.48 57.8485 342.594 57.1212 342.594 56.2727C342.594 55.4091 342.48 54.6705 342.253 54.0568C342.033 53.4356 341.715 52.9621 341.298 52.6364C340.889 52.303 340.397 52.1364 339.821 52.1364C339.245 52.1364 338.753 52.303 338.344 52.6364C337.942 52.9621 337.632 53.4356 337.412 54.0568C337.2 54.6705 337.094 55.4091 337.094 56.2727C337.094 57.1364 337.2 57.8712 337.412 58.4773C337.632 59.0758 337.942 59.5341 338.344 59.8523C338.753 60.1629 339.245 60.3182 339.821 60.3182ZM351.966 65V47.5455H358.239V65H351.966ZM355.102 45.7273C354.254 45.7273 353.527 45.447 352.92 44.8864C352.314 44.3258 352.011 43.6515 352.011 42.8636C352.011 42.0758 352.314 41.4015 352.92 40.8409C353.527 40.2803 354.254 40 355.102 40C355.958 40 356.686 40.2803 357.284 40.8409C357.89 41.4015 358.193 42.0758 358.193 42.8636C358.193 43.6515 357.89 44.3258 357.284 44.8864C356.686 45.447 355.958 45.7273 355.102 45.7273ZM367.707 55.1818V65H361.435V47.5455H367.389V50.8636H367.571C367.95 49.7576 368.616 48.8902 369.571 48.2614C370.533 47.6326 371.654 47.3182 372.935 47.3182C374.17 47.3182 375.241 47.6023 376.151 48.1705C377.067 48.7311 377.776 49.5038 378.276 50.4886C378.783 51.4735 379.033 52.5985 379.026 53.8636V65H372.753V55.1818C372.76 54.3182 372.541 53.6402 372.094 53.1477C371.654 52.6553 371.041 52.4091 370.253 52.4091C369.738 52.4091 369.287 52.5227 368.901 52.75C368.522 52.9697 368.23 53.2879 368.026 53.7045C367.821 54.1136 367.715 54.6061 367.707 55.1818ZM390.486 65.3182C388.622 65.3182 387.016 64.9621 385.668 64.25C384.327 63.5303 383.293 62.5 382.565 61.1591C381.846 59.8106 381.486 58.197 381.486 56.3182C381.486 54.5152 381.849 52.9394 382.577 51.5909C383.304 50.2424 384.33 49.1932 385.656 48.4432C386.982 47.6932 388.546 47.3182 390.349 47.3182C391.668 47.3182 392.861 47.5227 393.929 47.9318C394.997 48.3409 395.91 48.9356 396.668 49.7159C397.425 50.4886 398.009 51.428 398.418 52.5341C398.827 53.6402 399.031 54.8864 399.031 56.2727V57.7273H383.44V54.2727H393.259C393.251 53.7727 393.122 53.3333 392.872 52.9545C392.63 52.5682 392.3 52.2689 391.884 52.0568C391.474 51.8371 391.009 51.7273 390.486 51.7273C389.978 51.7273 389.512 51.8371 389.088 52.0568C388.664 52.2689 388.323 52.5644 388.065 52.9432C387.815 53.322 387.683 53.7652 387.668 54.2727V58C387.668 58.5606 387.785 59.0606 388.02 59.5C388.255 59.9394 388.592 60.2841 389.031 60.5341C389.471 60.7841 390.001 60.9091 390.622 60.9091C391.054 60.9091 391.448 60.8485 391.804 60.7273C392.168 60.6061 392.478 60.4318 392.736 60.2045C392.993 59.9697 393.183 59.6894 393.304 59.3636H399.031C398.834 60.5758 398.368 61.6288 397.634 62.5227C396.899 63.4091 395.925 64.0985 394.713 64.5909C393.509 65.0758 392.099 65.3182 390.486 65.3182ZM418.827 47.5455V52.0909H407.145V47.5455H418.827ZM409.372 65V47.0455C409.372 45.6061 409.63 44.4129 410.145 43.4659C410.66 42.5189 411.387 41.8106 412.327 41.3409C413.266 40.8712 414.372 40.6364 415.645 40.6364C416.44 40.6364 417.213 40.697 417.963 40.8182C418.721 40.9394 419.281 41.0455 419.645 41.1364L418.736 45.6364C418.509 45.5682 418.243 45.5152 417.94 45.4773C417.637 45.4318 417.372 45.4091 417.145 45.4091C416.554 45.4091 416.156 45.5341 415.952 45.7841C415.747 46.0341 415.645 46.3636 415.645 46.7727V65H409.372ZM429.125 65.3182C427.231 65.3182 425.61 64.9432 424.261 64.1932C422.913 63.4356 421.879 62.3826 421.159 61.0341C420.439 59.678 420.08 58.1061 420.08 56.3182C420.08 54.5303 420.439 52.9621 421.159 51.6136C421.879 50.2576 422.913 49.2045 424.261 48.4545C425.61 47.697 427.231 47.3182 429.125 47.3182C431.019 47.3182 432.64 47.697 433.989 48.4545C435.337 49.2045 436.371 50.2576 437.091 51.6136C437.811 52.9621 438.17 54.5303 438.17 56.3182C438.17 58.1061 437.811 59.678 437.091 61.0341C436.371 62.3826 435.337 63.4356 433.989 64.1932C432.64 64.9432 431.019 65.3182 429.125 65.3182ZM429.17 60.6818C429.701 60.6818 430.159 60.5038 430.545 60.1477C430.932 59.7917 431.231 59.2841 431.443 58.625C431.655 57.9659 431.761 57.1818 431.761 56.2727C431.761 55.3561 431.655 54.572 431.443 53.9205C431.231 53.2614 430.932 52.7538 430.545 52.3977C430.159 52.0417 429.701 51.8636 429.17 51.8636C428.61 51.8636 428.129 52.0417 427.727 52.3977C427.326 52.7538 427.019 53.2614 426.807 53.9205C426.595 54.572 426.489 55.3561 426.489 56.2727C426.489 57.1818 426.595 57.9659 426.807 58.625C427.019 59.2841 427.326 59.7917 427.727 60.1477C428.129 60.5038 428.61 60.6818 429.17 60.6818ZM440.716 65V47.5455H446.807V50.8636H446.989C447.307 49.6364 447.811 48.7386 448.5 48.1705C449.197 47.6023 450.011 47.3182 450.943 47.3182C451.216 47.3182 451.485 47.3409 451.75 47.3864C452.023 47.4242 452.284 47.4811 452.534 47.5568V52.9091C452.223 52.803 451.841 52.7235 451.386 52.6705C450.932 52.6174 450.542 52.5909 450.216 52.5909C449.602 52.5909 449.049 52.7311 448.557 53.0114C448.072 53.2841 447.689 53.6705 447.409 54.1705C447.129 54.6629 446.989 55.2424 446.989 55.9091V65H440.716ZM289.864 85.8182V80.7273H310.091V85.8182H303.091V104H296.864V85.8182H289.864ZM312.469 104V80.7273H329.241V85.8182H318.787V89.8182H328.378V94.9091H318.787V98.9091H329.196V104H312.469ZM341.33 104H332.375V80.7273H341.239C343.633 80.7273 345.701 81.1932 347.443 82.125C349.193 83.0492 350.542 84.3826 351.489 86.125C352.443 87.8598 352.92 89.9394 352.92 92.3636C352.92 94.7879 352.447 96.8712 351.5 98.6136C350.553 100.348 349.212 101.682 347.477 102.614C345.742 103.538 343.693 104 341.33 104ZM338.693 98.6364H341.102C342.254 98.6364 343.235 98.4508 344.045 98.0795C344.864 97.7083 345.485 97.0682 345.909 96.1591C346.341 95.25 346.557 93.9848 346.557 92.3636C346.557 90.7424 346.337 89.4773 345.898 88.5682C345.466 87.6591 344.83 87.0189 343.989 86.6477C343.155 86.2765 342.133 86.0909 340.92 86.0909H338.693V98.6364ZM361.582 85.8182V80.7273H381.81V85.8182H374.81V104H368.582V85.8182H361.582ZM386.767 104.273C385.653 104.273 384.669 104.091 383.812 103.727C382.964 103.356 382.297 102.795 381.812 102.045C381.328 101.295 381.085 100.341 381.085 99.1818C381.085 98.2273 381.248 97.4129 381.574 96.7386C381.9 96.0568 382.354 95.5 382.938 95.0682C383.521 94.6364 384.199 94.3068 384.972 94.0795C385.752 93.8523 386.593 93.7045 387.494 93.6364C388.472 93.5606 389.256 93.4697 389.847 93.3636C390.445 93.25 390.877 93.0947 391.142 92.8977C391.407 92.6932 391.54 92.4242 391.54 92.0909V92.0455C391.54 91.5909 391.366 91.2424 391.017 91C390.669 90.7576 390.222 90.6364 389.676 90.6364C389.078 90.6364 388.589 90.7689 388.21 91.0341C387.839 91.2917 387.616 91.6894 387.54 92.2273H381.767C381.843 91.1667 382.18 90.1894 382.778 89.2955C383.384 88.3939 384.267 87.6742 385.426 87.1364C386.585 86.5909 388.032 86.3182 389.767 86.3182C391.017 86.3182 392.138 86.4659 393.131 86.7614C394.123 87.0492 394.968 87.4545 395.665 87.9773C396.362 88.4924 396.892 89.0985 397.256 89.7955C397.627 90.4848 397.812 91.2348 397.812 92.0455V104H391.949V101.545H391.812C391.464 102.197 391.04 102.723 390.54 103.125C390.047 103.527 389.483 103.818 388.847 104C388.218 104.182 387.525 104.273 386.767 104.273ZM388.812 100.318C389.29 100.318 389.737 100.22 390.153 100.023C390.578 99.8258 390.922 99.5417 391.188 99.1705C391.453 98.7992 391.585 98.3485 391.585 97.8182V96.3636C391.419 96.4318 391.241 96.4962 391.051 96.5568C390.869 96.6174 390.672 96.6742 390.46 96.7273C390.256 96.7803 390.036 96.8295 389.801 96.875C389.574 96.9205 389.335 96.9621 389.085 97C388.6 97.0758 388.203 97.2008 387.892 97.375C387.589 97.5417 387.362 97.75 387.21 98C387.066 98.2424 386.994 98.5152 386.994 98.8182C386.994 99.303 387.165 99.6742 387.506 99.9318C387.847 100.189 388.282 100.318 388.812 100.318ZM407.082 80.7273V104H400.81V80.7273H407.082ZM415.915 99.8636L415.96 92.4091H416.778L421.006 86.5455H428.051L420.96 95.6818H419.188L415.915 99.8636ZM410.278 104V80.7273H416.551V104H410.278ZM421.051 104L417.051 97.0909L421.142 92.6364L428.233 104H421.051ZM445.639 92.2273H439.866C439.836 91.8712 439.711 91.5644 439.491 91.3068C439.272 91.0492 438.988 90.8523 438.639 90.7159C438.298 90.572 437.92 90.5 437.503 90.5C436.965 90.5 436.503 90.5985 436.116 90.7955C435.73 90.9924 435.541 91.2727 435.548 91.6364C435.541 91.8939 435.651 92.1326 435.878 92.3523C436.113 92.572 436.563 92.7424 437.23 92.8636L440.776 93.5C442.563 93.8258 443.893 94.375 444.764 95.1477C445.643 95.9129 446.086 96.9394 446.094 98.2273C446.086 99.4697 445.715 100.549 444.98 101.466C444.253 102.375 443.257 103.08 441.991 103.58C440.734 104.072 439.298 104.318 437.685 104.318C435.018 104.318 432.931 103.773 431.423 102.682C429.923 101.591 429.086 100.152 428.912 98.3636H435.139C435.223 98.9167 435.495 99.3447 435.957 99.6477C436.427 99.9432 437.018 100.091 437.73 100.091C438.306 100.091 438.779 99.9924 439.151 99.7955C439.529 99.5985 439.723 99.3182 439.73 98.9545C439.723 98.6212 439.556 98.3561 439.23 98.1591C438.912 97.9621 438.412 97.803 437.73 97.6818L434.639 97.1364C432.859 96.8258 431.526 96.2348 430.639 95.3636C429.753 94.4924 429.313 93.3712 429.321 92C429.313 90.7879 429.632 89.7614 430.276 88.9205C430.927 88.072 431.855 87.428 433.06 86.9886C434.272 86.5417 435.707 86.3182 437.366 86.3182C439.889 86.3182 441.878 86.8409 443.332 87.8864C444.795 88.9318 445.563 90.3788 445.639 92.2273Z" fill="black"/>
</svg>
